<svg width="512" height="60" viewBox="0 0 512 60" fill="none" xmlns="http://www.w3.org/2000/svg">
<path d="M6.09375 53.5625C4.42708 52 3.09375 50.0417 2.09375 47.6875C1.11458 45.3125 0.625 42.7604 0.625 40.0312C0.625 37.3021 0.895833 34.9375 1.4375 32.9375C2.52083 28.9583 4.41667 25.6146 7.125 22.9062C8.41667 21.5729 9.85417 20.4479 11.4375 19.5312C14.6875 17.6354 18.1146 16.6875 21.7188 16.6875C25.3438 16.6875 28.5208 17.8854 31.25 20.2812C32.125 21.0521 32.8854 21.9375 33.5312 22.9375L38 18.1562H48.25V57H38L33.5312 50.5312C30.1146 55.5729 24.9375 58.1042 18 58.125C16.0833 58.1458 14.0312 57.7708 11.8438 57C9.67708 56.25 7.76042 55.1042 6.09375 53.5625ZM31.4062 29.9375C30.6562 29.5 29.7604 29.2812 28.7188 29.2812C27.6771 29.2812 26.5729 29.6562 25.4062 30.4062C24.2604 31.1354 23.2292 32.0625 22.3125 33.1875C20.2708 35.7083 19.25 38.2708 19.25 40.875C19.25 42.7083 19.8125 44 20.9375 44.75C21.9792 45.4375 23.5625 45.3438 25.6875 44.4688C27.8333 43.5729 29.7396 42.4167 31.4062 41V29.9375ZM83.5 32.8125C81.5833 32.8125 79.6146 33.5104 77.5938 34.9062C75.5729 36.3021 74.5521 37.625 74.5312 38.875V57H55.7188V18.1562H74.5312V22.3125C75.5938 20.7083 76.9062 19.4271 78.4688 18.4688C80.0521 17.5104 81.7292 16.9375 83.5 16.75V32.8125ZM98.6562 0.15625C101.719 0.15625 103.99 0.802083 105.469 2.09375C106.948 3.36458 107.677 4.98958 107.656 6.96875C107.656 8.94792 106.708 10.7708 104.812 12.4375C102.938 14.1042 100.427 14.9375 97.2812 14.9375C92.8646 14.9375 90.1146 13.6042 89.0312 10.9375C88.7188 10.1875 88.5625 9.35417 88.5625 8.4375C88.5625 7.52083 88.7812 6.5625 89.2188 5.5625C89.6562 4.5625 90.3125 3.66667 91.1875 2.875C93.125 1.0625 95.6146 0.15625 98.6562 0.15625ZM107.125 57H89.0312V18.1562H107.125V57ZM144.094 54.1875C140.135 56.875 135.938 58.2188 131.5 58.2188C127.083 58.2188 123.49 56.9688 120.719 54.4688C117.948 51.9479 116.562 48.5625 116.562 44.3125V28.0625H113V18.1562H116.562V7.65625L135.25 5.75V18.1562H144.094V28.0625H135.25V37.875C135.25 40.8125 135.906 42.9479 137.219 44.2812C138.552 45.5938 140.844 46.25 144.094 46.25V54.1875ZM168.406 22.3125C171.219 18.5625 175.479 16.6875 181.188 16.6875C182.812 16.6875 184.542 17.0625 186.375 17.8125C188.208 18.5625 189.802 19.6458 191.156 21.0625C194.073 24.0833 195.531 28.0833 195.531 33.0625V57H176.844V40.1562C176.844 36.8021 176.302 34.0521 175.219 31.9062C174.135 29.7396 172.865 28.6562 171.406 28.6562C169.406 28.6562 168.406 30.0208 168.406 32.75V57H149.844V4.40625H168.406V22.3125ZM202.906 7.09375H210.062L234.188 29.75L258.969 7.09375H265.875V57H245.344V40.8125L232.594 54.8125L220.188 41.1875V57H202.906V7.09375ZM277.844 53.5625C276.177 52 274.844 50.0417 273.844 47.6875C272.865 45.3125 272.375 42.7604 272.375 40.0312C272.375 37.3021 272.646 34.9375 273.188 32.9375C274.271 28.9583 276.167 25.6146 278.875 22.9062C280.167 21.5729 281.604 20.4479 283.188 19.5312C286.438 17.6354 289.865 16.6875 293.469 16.6875C297.094 16.6875 300.271 17.8854 303 20.2812C303.875 21.0521 304.635 21.9375 305.281 22.9375L309.75 18.1562H320V57H309.75L305.281 50.5312C301.865 55.5729 296.688 58.1042 289.75 58.125C287.833 58.1458 285.781 57.7708 283.594 57C281.427 56.25 279.51 55.1042 277.844 53.5625ZM303.156 29.9375C302.406 29.5 301.51 29.2812 300.469 29.2812C299.427 29.2812 298.323 29.6562 297.156 30.4062C296.01 31.1354 294.979 32.0625 294.062 33.1875C292.021 35.7083 291 38.2708 291 40.875C291 42.7083 291.562 44 292.688 44.75C293.729 45.4375 295.312 45.3438 297.438 44.4688C299.583 43.5729 301.49 42.4167 303.156 41V29.9375ZM356.844 54.1875C352.885 56.875 348.688 58.2188 344.25 58.2188C339.833 58.2188 336.24 56.9688 333.469 54.4688C330.698 51.9479 329.312 48.5625 329.312 44.3125V28.0625H325.75V18.1562H329.312V7.65625L348 5.75V18.1562H356.844V28.0625H348V37.875C348 40.8125 348.656 42.9479 349.969 44.2812C351.302 45.5938 353.594 46.25 356.844 46.25V54.1875ZM381.156 22.3125C383.969 18.5625 388.229 16.6875 393.938 16.6875C395.562 16.6875 397.292 17.0625 399.125 17.8125C400.958 18.5625 402.552 19.6458 403.906 21.0625C406.823 24.0833 408.281 28.0833 408.281 33.0625V57H389.594V40.1562C389.594 36.8021 389.052 34.0521 387.969 31.9062C386.885 29.7396 385.615 28.6562 384.156 28.6562C382.156 28.6562 381.156 30.0208 381.156 32.75V57H362.594V4.40625H381.156V22.3125ZM425.219 0.15625C428.281 0.15625 430.552 0.802083 432.031 2.09375C433.51 3.36458 434.24 4.98958 434.219 6.96875C434.219 8.94792 433.271 10.7708 431.375 12.4375C429.5 14.1042 426.99 14.9375 423.844 14.9375C419.427 14.9375 416.677 13.6042 415.594 10.9375C415.281 10.1875 415.125 9.35417 415.125 8.4375C415.125 7.52083 415.344 6.5625 415.781 5.5625C416.219 4.5625 416.875 3.66667 417.75 2.875C419.688 1.0625 422.177 0.15625 425.219 0.15625ZM433.688 57H415.594V18.1562H433.688V57ZM463.688 45.1562C465.792 45.1562 468.833 43.6667 472.812 40.6875V55.9688C465.979 58.5521 459.677 58.9167 453.906 57.0625C448.135 55.2083 444.042 51.8958 441.625 47.125C440.417 44.7083 439.812 41.875 439.812 38.625C439.812 32.0833 442.062 26.7812 446.562 22.7188C451.062 18.6562 456.917 16.625 464.125 16.625C467.104 16.625 469.792 17.0729 472.188 17.9688V30C471.625 29.5208 470.833 29.2812 469.812 29.2812C468.792 29.2812 467.698 29.6042 466.531 30.25C465.365 30.8958 464.302 31.7604 463.344 32.8438C461.135 35.3438 460.031 37.9167 460.031 40.5625C460.052 43.1875 460.854 44.6667 462.438 45C462.854 45.0833 463.271 45.1354 463.688 45.1562ZM508.875 29.8125C504.25 28.7292 500.885 28.1875 498.781 28.1875C498.177 28.1875 497.708 28.3229 497.375 28.5938C497.062 28.8646 496.906 29.1667 496.906 29.5C496.906 30.1875 497.76 30.8854 499.469 31.5938C501.198 32.2812 502.781 32.9583 504.219 33.625C505.656 34.2917 506.896 35.1042 507.938 36.0625C510.188 38.1458 511.312 41.25 511.312 45.375C511.312 49.4792 509.823 52.6354 506.844 54.8438C503.865 57.0521 499.833 58.1562 494.75 58.1562C489.667 58.1562 485.604 57.6875 482.562 56.75C481.229 56.3542 480.208 55.8854 479.5 55.3438V43.75C479.792 43.7708 480.302 43.9062 481.031 44.1562C481.76 44.4062 482.969 44.8021 484.656 45.3438C486.344 45.8646 487.875 46.125 489.25 46.125C490.646 46.125 491.344 45.6146 491.344 44.5938C491.344 43.8021 490.719 43.0312 489.469 42.2812C488.906 41.9479 488.271 41.6042 487.562 41.25C484.625 39.8125 482.521 38.1562 481.25 36.2812C480 34.3854 479.375 32.1667 479.375 29.625C479.375 25.1042 481.208 21.7292 484.875 19.5C487.958 17.625 491.99 16.6875 496.969 16.6875C500.448 16.6875 503.938 17.0312 507.438 17.7188C508.188 17.8646 508.667 17.9688 508.875 18.0312V29.8125Z" fill="#99265D"/>
</svg>
